# xmcd
#
# Track frame offsets: 
#        150
#        17955
#        39025
#        60785
#        87365
#        119335
#        149420
#        179675
#        201375
#        233860
#        256080
#        287370
#        315540
#
# Disc length: 4442 seconds
#
# Revision: 0
# Processed by: cddbd v1.5.2PL0 Copyright (c) Steve Scherf et al.
# Submitted via: ExactAudioCopy v1.0b3
#
DISCID=ae11580d
DTITLE=Olof Hasvén - Embraced (Emotional and Electronical Music)
DYEAR=1995
DGENRE=Synthpop
TTITLE0=Vi hör ihop
TTITLE1=Soulsex
TTITLE2=Priestess of the Night
TTITLE3=Womanpower
TTITLE4=Love at 17
TTITLE5=I've got to Stop Myself
TTITLE6=I Believe in You
TTITLE7=Berör mig
TTITLE8=Afraid of the Darkness
TTITLE9=Andas lugnt
TTITLE10=Beyond the Silverstring
TTITLE11=Shine over the Radio
TTITLE12=Future Analysis
EXTD=
EXTT0=
EXTT1=
EXTT2=
EXTT3=
EXTT4=
EXTT5=
EXTT6=
EXTT7=
EXTT8=
EXTT9=
EXTT10=
EXTT11=
EXTT12=
PLAYORDER=
